<svg version="1.1" viewBox="0.0 0.0 600.0 371.0" fill="none" stroke="none" stroke-linecap="square" stroke-miterlimit="10" width="600" height="371" xmlns:xlink="http://www.w3.org/1999/xlink" xmlns="http://www.w3.org/2000/svg"><path fill="#ffffff" d="M0 0L600.0 0L600.0 371.0L0 371.0L0 0Z" fill-rule="nonzero"/><path stroke="#333333" stroke-width="1.0" stroke-linecap="butt" d="M77.5 25.5L77.5 300.5" fill-rule="nonzero"/><path stroke="#cccccc" stroke-width="1.0" stroke-linecap="butt" d="M161.5 25.5L161.5 300.5" fill-rule="nonzero"/><path stroke="#cccccc" stroke-width="1.0" stroke-linecap="butt" d="M245.5 25.5L245.5 300.5" fill-rule="nonzero"/><path stroke="#cccccc" stroke-width="1.0" stroke-linecap="butt" d="M329.5 25.5L329.5 300.5" fill-rule="nonzero"/><path stroke="#cccccc" stroke-width="1.0" stroke-linecap="butt" d="M413.5 25.5L413.5 300.5" fill-rule="nonzero"/><path stroke="#cccccc" stroke-width="1.0" stroke-linecap="butt" d="M497.5 25.5L497.5 300.5" fill-rule="nonzero"/><path stroke="#cccccc" stroke-width="1.0" stroke-linecap="butt" d="M581.5 25.5L581.5 300.5" fill-rule="nonzero"/><path stroke="#333333" stroke-width="1.0" stroke-linecap="butt" d="M77.5 300.5L581.5 300.5" fill-rule="nonzero"/><path stroke="#cccccc" stroke-width="1.0" stroke-linecap="butt" d="M77.5 245.5L581.5 245.5" fill-rule="nonzero"/><path stroke="#cccccc" stroke-width="1.0" stroke-linecap="butt" d="M77.5 190.5L581.5 190.5" fill-rule="nonzero"/><path stroke="#cccccc" stroke-width="1.0" stroke-linecap="butt" d="M77.5 135.5L581.5 135.5" fill-rule="nonzero"/><path stroke="#cccccc" stroke-width="1.0" stroke-linecap="butt" d="M77.5 80.5L581.5 80.5" fill-rule="nonzero"/><path stroke="#cccccc" stroke-width="1.0" stroke-linecap="butt" d="M77.5 25.5L581.5 25.5" fill-rule="nonzero"/><clipPath id="id_0"><path d="M77.55 25.55L581.45 25.55L581.45 300.45L77.55 300.45L77.55 25.55Z" clip-rule="nonzero"/></clipPath><path fill="#4285f4" fill-opacity="0.3019608" clip-path="url(#id_0)" d="M77.55 300.45L329.5 68.7093L497.46667 186.6414L581.45 181.4183L581.45 300.45L581.45 300.45L581.45 300.45L497.46667 300.45L329.5 300.45L77.55 300.45Z" fill-rule="nonzero"/><path stroke="#4285f4" stroke-width="2.0" stroke-linecap="butt" clip-path="url(#id_0)" d="M77.55 300.45L329.5 68.7093L497.46667 186.6414L581.45 181.4183L581.45 300.45" fill-rule="nonzero"/><path fill="#000000" fill-opacity="0.0" clip-path="url(#id_0)" d="M80.55 300.45C80.55 302.10684 79.206856 303.45 77.55 303.45C75.89314 303.45 74.55 302.10684 74.55 300.45C74.55 298.79315 75.89314 297.45 77.55 297.45C79.206856 297.45 80.55 298.79315 80.55 300.45Z" fill-rule="nonzero"/><path fill="#000000" fill-opacity="0.0" clip-path="url(#id_0)" d="M332.5 68.7093C332.5 70.36616 331.15686 71.7093 329.5 71.7093C327.84314 71.7093 326.5 70.36616 326.5 68.7093C326.5 67.052444 327.84314 65.7093 329.5 65.7093C331.15686 65.7093 332.5 67.052444 332.5 68.7093Z" fill-rule="nonzero"/><path fill="#000000" fill-opacity="0.0" clip-path="url(#id_0)" d="M500.46667 186.6414C500.46667 188.29825 499.12354 189.6414 497.46667 189.6414C495.8098 189.6414 494.46667 188.29825 494.46667 186.6414C494.46667 184.98454 495.8098 183.6414 497.46667 183.6414C499.12354 183.6414 500.46667 184.98454 500.46667 186.6414Z" fill-rule="nonzero"/><path fill="#000000" fill-opacity="0.0" clip-path="url(#id_0)" d="M584.45 181.4183C584.45 183.07515 583.1069 184.4183 581.45 184.4183C579.79315 184.4183 578.45 183.07515 578.45 181.4183C578.45 179.76144 579.79315 178.4183 581.45 178.4183C583.1069 178.4183 584.45 179.76144 584.45 181.4183Z" fill-rule="nonzero"/><path fill="#000000" fill-opacity="0.0" clip-path="url(#id_0)" d="M584.45 300.45C584.45 302.10684 583.1069 303.45 581.45 303.45C579.79315 303.45 578.45 302.10684 578.45 300.45C578.45 298.79315 579.79315 297.45 581.45 297.45C583.1069 297.45 584.45 298.79315 584.45 300.45Z" fill-rule="nonzero"/><path fill="#000000" d="M289.5625 346.4344L290.6875 346.73126Q290.32812 348.1219 289.40625 348.85626Q288.48438 349.59064 287.14062 349.59064Q285.75 349.59064 284.875 349.02814Q284.0 348.46564 283.54688 347.40314Q283.09375 346.325 283.09375 345.09064Q283.09375 343.7469 283.60938 342.7469Q284.125 341.7469 285.0625 341.23126Q286.01562 340.71564 287.15625 340.71564Q288.4375 340.71564 289.3125 341.3719Q290.20312 342.02814 290.54688 343.21564L289.42188 343.48126Q289.125 342.54376 288.54688 342.1219Q287.98438 341.6844 287.125 341.6844Q286.14062 341.6844 285.46875 342.16876Q284.8125 342.6375 284.53125 343.4344Q284.26562 344.23126 284.26562 345.09064Q284.26562 346.1844 284.57812 346.9969Q284.90625 347.8094 285.57812 348.21564Q286.25 348.6219 287.04688 348.6219Q288.0 348.6219 288.65625 348.075Q289.32812 347.52814 289.5625 346.4344ZM291.90625 346.34064Q291.90625 344.60626 292.85938 343.77814Q293.65625 343.09064 294.8125 343.09064Q296.09375 343.09064 296.90625 343.9344Q297.73438 344.7625 297.73438 346.2469Q297.73438 347.45 297.375 348.1375Q297.01562 348.825 296.3125 349.21564Q295.625 349.59064 294.8125 349.59064Q293.51562 349.59064 292.70312 348.7625Q291.90625 347.91876 291.90625 346.34064ZM292.98438 346.34064Q292.98438 347.52814 293.5 348.1219Q294.03125 348.71564 294.8125 348.71564Q295.60938 348.71564 296.125 348.1219Q296.64062 347.52814 296.64062 346.3094Q296.64062 345.15314 296.10938 344.5594Q295.59375 343.96564 294.8125 343.96564Q294.03125 343.96564 293.5 344.5594Q292.98438 345.1375 292.98438 346.34064ZM299.29688 349.45L299.29688 343.23126L300.23438 343.23126L300.23438 344.10626Q300.53125 343.6375 301.01562 343.3719Q301.5 343.09064 302.125 343.09064Q302.8125 343.09064 303.25 343.3719Q303.70312 343.65314 303.875 344.16876Q304.625 343.09064 305.79688 343.09064Q306.73438 343.09064 307.21875 343.60626Q307.71875 344.10626 307.71875 345.1844L307.71875 349.45L306.67188 349.45L306.67188 345.52814Q306.67188 344.90314 306.5625 344.6219Q306.46875 344.34064 306.20312 344.16876Q305.9375 343.9969 305.5625 343.9969Q304.90625 343.9969 304.46875 344.4344Q304.04688 344.8719 304.04688 345.84064L304.04688 349.45L302.98438 349.45L302.98438 345.40314Q302.98438 344.7 302.71875 344.35626Q302.46875 343.9969 301.89062 343.9969Q301.4375 343.9969 301.0625 344.23126Q300.6875 344.46564 300.51562 344.91876Q300.34375 345.3719 300.34375 346.21564L300.34375 349.45L299.29688 349.45ZM309.29688 351.84064L309.29688 343.23126L310.25 343.23126L310.25 344.02814Q310.59375 343.5594 311.01562 343.325Q311.45312 343.09064 312.0625 343.09064Q312.85938 343.09064 313.46875 343.4969Q314.07812 343.90314 314.375 344.65314Q314.6875 345.40314 314.6875 346.29376Q314.6875 347.2469 314.34375 348.0125Q314.01562 348.77814 313.35938 349.1844Q312.70312 349.59064 311.98438 349.59064Q311.45312 349.59064 311.03125 349.3719Q310.60938 349.1375 310.34375 348.8094L310.34375 351.84064L309.29688 351.84064ZM310.25 346.3719Q310.25 347.575 310.73438 348.15314Q311.21875 348.71564 311.90625 348.71564Q312.60938 348.71564 313.10938 348.1219Q313.60938 347.52814 313.60938 346.27814Q313.60938 345.09064 313.125 344.5125Q312.64062 343.91876 311.95312 343.91876Q311.28125 343.91876 310.76562 344.54376Q310.25 345.16876 310.25 346.3719ZM316.28125 349.45L316.28125 343.23126L317.23438 343.23126L317.23438 344.16876Q317.59375 343.5125 317.89062 343.3094Q318.20312 343.09064 318.57812 343.09064Q319.10938 343.09064 319.65625 343.41876L319.29688 344.40314Q318.90625 344.16876 318.53125 344.16876Q318.17188 344.16876 317.89062 344.3875Q317.625 344.59064 317.51562 344.96564Q317.32812 345.52814 317.32812 346.1844L317.32812 349.45L316.28125 349.45ZM324.54688 347.45L325.64062 347.575Q325.39062 348.52814 324.6875 349.0594Q323.98438 349.59064 322.90625 349.59064Q321.54688 349.59064 320.73438 348.7469Q319.9375 347.90314 319.9375 346.3875Q319.9375 344.825 320.75 343.96564Q321.5625 343.09064 322.84375 343.09064Q324.09375 343.09064 324.875 343.9344Q325.67188 344.77814 325.67188 346.325Q325.67188 346.41876 325.67188 346.60626L321.03125 346.60626Q321.09375 347.6375 321.60938 348.1844Q322.125 348.71564 322.90625 348.71564Q323.48438 348.71564 323.89062 348.41876Q324.3125 348.10626 324.54688 347.45ZM321.09375 345.7469L324.5625 345.7469Q324.5 344.95 324.17188 344.5594Q323.65625 343.95 322.85938 343.95Q322.125 343.95 321.625 344.4344Q321.14062 344.91876 321.09375 345.7469ZM326.875 347.59064L327.90625 347.4344Q328.0 348.0594 328.39062 348.3875Q328.79688 348.71564 329.53125 348.71564Q330.25 348.71564 330.59375 348.4344Q330.95312 348.1375 330.95312 347.73126Q330.95312 347.3719 330.64062 347.16876Q330.42188 347.02814 329.5625 346.8094Q328.40625 346.5125 327.95312 346.3094Q327.51562 346.09064 327.28125 345.71564Q327.04688 345.34064 327.04688 344.8719Q327.04688 344.46564 327.23438 344.10626Q327.42188 343.7469 327.75 343.5125Q328.0 343.34064 328.42188 343.21564Q328.84375 343.09064 329.34375 343.09064Q330.0625 343.09064 330.60938 343.3094Q331.17188 343.5125 331.4375 343.8719Q331.70312 344.23126 331.79688 344.825L330.76562 344.96564Q330.70312 344.4969 330.35938 344.23126Q330.03125 343.95 329.40625 343.95Q328.6875 343.95 328.375 344.2Q328.0625 344.4344 328.0625 344.7625Q328.0625 344.96564 328.1875 345.1219Q328.32812 345.29376 328.59375 345.40314Q328.75 345.46564 329.53125 345.66876Q330.65625 345.98126 331.09375 346.16876Q331.53125 346.35626 331.78125 346.71564Q332.03125 347.075 332.03125 347.6219Q332.03125 348.15314 331.71875 348.6219Q331.42188 349.075 330.84375 349.34064Q330.26562 349.59064 329.53125 349.59064Q328.3125 349.59064 327.67188 349.09064Q327.04688 348.575 326.875 347.59064ZM332.875 347.59064L333.90625 347.4344Q334.0 348.0594 334.39062 348.3875Q334.79688 348.71564 335.53125 348.71564Q336.25 348.71564 336.59375 348.4344Q336.95312 348.1375 336.95312 347.73126Q336.95312 347.3719 336.64062 347.16876Q336.42188 347.02814 335.5625 346.8094Q334.40625 346.5125 333.95312 346.3094Q333.51562 346.09064 333.28125 345.71564Q333.04688 345.34064 333.04688 344.8719Q333.04688 344.46564 333.23438 344.10626Q333.42188 343.7469 333.75 343.5125Q334.0 343.34064 334.42188 343.21564Q334.84375 343.09064 335.34375 343.09064Q336.0625 343.09064 336.60938 343.3094Q337.17188 343.5125 337.4375 343.8719Q337.70312 344.23126 337.79688 344.825L336.76562 344.96564Q336.70312 344.4969 336.35938 344.23126Q336.03125 343.95 335.40625 343.95Q334.6875 343.95 334.375 344.2Q334.0625 344.4344 334.0625 344.7625Q334.0625 344.96564 334.1875 345.1219Q334.32812 345.29376 334.59375 345.40314Q334.75 345.46564 335.53125 345.66876Q336.65625 345.98126 337.09375 346.16876Q337.53125 346.35626 337.78125 346.71564Q338.03125 347.075 338.03125 347.6219Q338.03125 348.15314 337.71875 348.6219Q337.42188 349.075 336.84375 349.34064Q336.26562 349.59064 335.53125 349.59064Q334.3125 349.59064 333.67188 349.09064Q333.04688 348.575 332.875 347.59064ZM339.29688 342.075L339.29688 340.85626L340.35938 340.85626L340.35938 342.075L339.29688 342.075ZM339.29688 349.45L339.29688 343.23126L340.35938 343.23126L340.35938 349.45L339.29688 349.45ZM341.90625 346.34064Q341.90625 344.60626 342.85938 343.77814Q343.65625 343.09064 344.8125 343.09064Q346.09375 343.09064 346.90625 343.9344Q347.73438 344.7625 347.73438 346.2469Q347.73438 347.45 347.375 348.1375Q347.01562 348.825 346.3125 349.21564Q345.625 349.59064 344.8125 349.59064Q343.51562 349.59064 342.70312 348.7625Q341.90625 347.91876 341.90625 346.34064ZM342.98438 346.34064Q342.98438 347.52814 343.5 348.1219Q344.03125 348.71564 344.8125 348.71564Q345.60938 348.71564 346.125 348.1219Q346.64062 347.52814 346.64062 346.3094Q346.64062 345.15314 346.10938 344.5594Q345.59375 343.96564 344.8125 343.96564Q344.03125 343.96564 343.5 344.5594Q342.98438 345.1375 342.98438 346.34064ZM349.29688 349.45L349.29688 343.23126L350.23438 343.23126L350.23438 344.10626Q350.92188 343.09064 352.21875 343.09064Q352.78125 343.09064 353.25 343.29376Q353.73438 343.4969 353.96875 343.825Q354.20312 344.15314 354.29688 344.59064Q354.34375 344.8875 354.34375 345.6219L354.34375 349.45L353.29688 349.45L353.29688 345.66876Q353.29688 345.0125 353.17188 344.7Q353.04688 344.3875 352.73438 344.2Q352.42188 343.9969 352.0 343.9969Q351.32812 343.9969 350.82812 344.4344Q350.34375 344.85626 350.34375 346.04376L350.34375 349.45L349.29688 349.45ZM361.3125 351.98126Q360.4375 350.8719 359.82812 349.40314Q359.23438 347.91876 359.23438 346.34064Q359.23438 344.95 359.67188 343.66876Q360.20312 342.1844 361.3125 340.71564L362.0625 340.71564Q361.35938 341.9344 361.125 342.45Q360.76562 343.2625 360.5625 344.1375Q360.3125 345.23126 360.3125 346.34064Q360.3125 349.16876 362.0625 351.98126L361.3125 351.98126ZM363.29688 349.45L363.29688 343.23126L364.23438 343.23126L364.23438 344.10626Q364.53125 343.6375 365.01562 343.3719Q365.5 343.09064 366.125 343.09064Q366.8125 343.09064 367.25 343.3719Q367.70312 343.65314 367.875 344.16876Q368.625 343.09064 369.79688 343.09064Q370.73438 343.09064 371.21875 343.60626Q371.71875 344.10626 371.71875 345.1844L371.71875 349.45L370.67188 349.45L370.67188 345.52814Q370.67188 344.90314 370.5625 344.6219Q370.46875 344.34064 370.20312 344.16876Q369.9375 343.9969 369.5625 343.9969Q368.90625 343.9969 368.46875 344.4344Q368.04688 344.8719 368.04688 345.84064L368.04688 349.45L366.98438 349.45L366.98438 345.40314Q366.98438 344.7 366.71875 344.35626Q366.46875 343.9969 365.89062 343.9969Q365.4375 343.9969 365.0625 344.23126Q364.6875 344.46564 364.51562 344.91876Q364.34375 345.3719 364.34375 346.21564L364.34375 349.45L363.29688 349.45ZM373.98438 351.98126L373.23438 351.98126Q374.98438 349.16876 374.98438 346.34064Q374.98438 345.2469 374.73438 344.15314Q374.53125 343.27814 374.17188 342.46564Q373.9375 341.95 373.23438 340.71564L373.98438 340.71564Q375.07812 342.1844 375.60938 343.66876Q376.0625 344.95 376.0625 346.34064Q376.0625 347.91876 375.45312 349.40314Q374.84375 350.8719 373.98438 351.98126Z" fill-rule="nonzero"/><path fill="#000000" d="M29.550013 194.01562L20.956263 194.01562L20.956263 188.21875L21.971888 188.21875L21.971888 192.875L24.628138 192.875L24.628138 188.84375L25.643763 188.84375L25.643763 192.875L29.550013 192.875L29.550013 194.01562ZM26.440638 187.59375Q24.706263 187.59375 23.878138 186.64062Q23.190638 185.84375 23.190638 184.6875Q23.190638 183.40625 24.034388 182.59375Q24.862513 181.76562 26.346888 181.76562Q27.550013 181.76562 28.237513 182.125Q28.925013 182.48438 29.315638 183.1875Q29.690638 183.875 29.690638 184.6875Q29.690638 185.98438 28.862513 186.79688Q28.018763 187.59375 26.440638 187.59375ZM26.440638 186.51562Q27.628138 186.51562 28.221888 186.0Q28.815638 185.46875 28.815638 184.6875Q28.815638 183.89062 28.221888 183.375Q27.628138 182.85938 26.409388 182.85938Q25.253138 182.85938 24.659388 183.39062Q24.065638 183.90625 24.065638 184.6875Q24.065638 185.46875 24.659388 186.0Q25.237513 186.51562 26.440638 186.51562ZM29.550013 180.21875L23.331263 180.21875L23.331263 179.26562L24.268763 179.26562Q23.612513 178.90625 23.409388 178.60938Q23.190638 178.29688 23.190638 177.92188Q23.190638 177.39062 23.518763 176.84375L24.503138 177.20312Q24.268763 177.59375 24.268763 177.96875Q24.268763 178.32812 24.487513 178.60938Q24.690638 178.875 25.065638 178.98438Q25.628138 179.17188 26.284388 179.17188L29.550013 179.17188L29.550013 180.21875ZM27.268763 172.14062L27.409388 171.10938Q28.471888 171.28125 29.081263 171.98438Q29.690638 172.6875 29.690638 173.70312Q29.690638 174.98438 28.862513 175.76562Q28.018763 176.53125 26.456263 176.53125Q25.456263 176.53125 24.706263 176.20312Q23.940638 175.85938 23.565638 175.1875Q23.190638 174.5 23.190638 173.6875Q23.190638 172.6875 23.706263 172.04688Q24.206263 171.39062 25.159388 171.20312L25.315638 172.23438Q24.690638 172.375 24.378138 172.75Q24.050013 173.125 24.050013 173.65625Q24.050013 174.45312 24.628138 174.95312Q25.190638 175.45312 26.425013 175.45312Q27.690638 175.45312 28.253138 174.96875Q28.815638 174.48438 28.815638 173.71875Q28.815638 173.09375 28.440638 172.6875Q28.065638 172.26562 27.268763 172.14062ZM27.550013 165.95312L27.675013 164.85938Q28.628138 165.10938 29.159388 165.8125Q29.690638 166.51562 29.690638 167.59375Q29.690638 168.95312 28.846888 169.76562Q28.003138 170.5625 26.487513 170.5625Q24.925013 170.5625 24.065638 169.75Q23.190638 168.9375 23.190638 167.65625Q23.190638 166.40625 24.034388 165.625Q24.878138 164.82812 26.425013 164.82812Q26.518763 164.82812 26.706263 164.82812L26.706263 169.46875Q27.737513 169.40625 28.284388 168.89062Q28.815638 168.375 28.815638 167.59375Q28.815638 167.01562 28.518763 166.60938Q28.206263 166.1875 27.550013 165.95312ZM25.846888 169.40625L25.846888 165.9375Q25.050013 166.0 24.659388 166.32812Q24.050013 166.84375 24.050013 167.64062Q24.050013 168.375 24.534388 168.875Q25.018763 169.35938 25.846888 169.40625ZM32.08126 158.1875Q30.971888 159.0625 29.503138 159.67188Q28.018763 160.26562 26.440638 160.26562Q25.050013 160.26562 23.768763 159.82812Q22.284388 159.29688 20.815638 158.1875L20.815638 157.4375Q22.034388 158.14062 22.550013 158.375Q23.362513 158.73438 24.237513 158.9375Q25.331263 159.1875 26.440638 159.1875Q29.268763 159.1875 32.08126 157.4375L32.08126 158.1875ZM29.550013 156.07812L20.956263 156.07812L20.956263 154.92188L27.706263 150.40625L20.956263 150.40625L20.956263 149.3125L29.550013 149.3125L29.550013 150.48438L22.800013 155.0L29.550013 155.0L29.550013 156.07812ZM32.08126 146.51562L32.08126 147.26562Q29.268763 145.51562 26.440638 145.51562Q25.346888 145.51562 24.253138 145.76562Q23.378138 145.96875 22.565638 146.32812Q22.050013 146.5625 20.815638 147.26562L20.815638 146.51562Q22.284388 145.42188 23.768763 144.89062Q25.050013 144.4375 26.440638 144.4375Q28.018763 144.4375 29.503138 145.04688Q30.971888 145.65625 32.08126 146.51562Z" fill-rule="nonzero"/><path fill="#000000" d="M65.05 300.21564Q65.05 298.6844 65.3625 297.7625Q65.675 296.825 66.28438 296.325Q66.90938 295.825 67.84688 295.825Q68.53438 295.825 69.05 296.10626Q69.58125 296.3875 69.925 296.91876Q70.26875 297.4344 70.45625 298.1844Q70.64375 298.9344 70.64375 300.21564Q70.64375 301.73126 70.33125 302.65314Q70.03438 303.575 69.40938 304.09064Q68.8 304.59064 67.84688 304.59064Q66.6125 304.59064 65.89375 303.7Q65.05 302.6375 65.05 300.21564ZM66.12813 300.21564Q66.12813 302.325 66.62813 303.02814Q67.12813 303.73126 67.84688 303.73126Q68.58125 303.73126 69.06563 303.02814Q69.56563 302.325 69.56563 300.21564Q69.56563 298.09064 69.06563 297.40314Q68.58125 296.7 67.83125 296.7Q67.1125 296.7 66.675 297.3094Q66.12813 298.09064 66.12813 300.21564Z" fill-rule="nonzero"/><path fill="#000000" d="M70.59688 248.45438L70.59688 249.47L64.90938 249.47Q64.90938 249.095 65.03438 248.73563Q65.25313 248.1575 65.72188 247.595Q66.20625 247.0325 67.1125 246.29813Q68.51875 245.14188 69.00313 244.47Q69.50313 243.79813 69.50313 243.20438Q69.50313 242.57938 69.05 242.1575Q68.59688 241.72 67.87813 241.72Q67.1125 241.72 66.65938 242.17313Q66.20625 242.62625 66.19063 243.43875L65.1125 243.32938Q65.22188 242.11063 65.94063 241.48563Q66.675 240.845 67.90938 240.845Q69.14375 240.845 69.8625 241.5325Q70.58125 242.22 70.58125 243.23563Q70.58125 243.75125 70.3625 244.25125Q70.15938 244.73563 69.65938 245.29813Q69.175 245.845 68.05 246.79813Q67.09688 247.595 66.81563 247.89188Q66.55 248.17313 66.37813 248.45438L70.59688 248.45438Z" fill-rule="nonzero"/><path fill="#000000" d="M68.425 194.49L68.425 192.4275L64.70625 192.4275L64.70625 191.45876L68.62813 185.89626L69.4875 185.89626L69.4875 191.45876L70.64375 191.45876L70.64375 192.4275L69.4875 192.4275L69.4875 194.49L68.425 194.49ZM68.425 191.45876L68.425 187.59938L65.7375 191.45876L68.425 191.45876Z" fill-rule="nonzero"/><path fill="#000000" d="M70.51875 133.02562L69.47188 133.10374Q69.33125 132.47874 69.08125 132.1975Q68.64375 131.74437 68.01875 131.74437Q67.51875 131.74437 67.12813 132.02562Q66.64375 132.40062 66.34688 133.10374Q66.06563 133.79124 66.05 135.0725Q66.425 134.49437 66.97188 134.21312Q67.53438 133.93187 68.14375 133.93187Q69.19063 133.93187 69.925 134.71312Q70.675 135.49437 70.675 136.71312Q70.675 137.52562 70.31563 138.22874Q69.97188 138.91624 69.3625 139.29124Q68.75313 139.65062 67.9875 139.65062Q66.65938 139.65062 65.83125 138.68187Q65.00313 137.71312 65.00313 135.49437Q65.00313 132.99437 65.925 131.86937Q66.72188 130.885 68.08125 130.885Q69.09688 130.885 69.7375 131.46312Q70.39375 132.02562 70.51875 133.02562ZM66.22188 136.72874Q66.22188 137.27562 66.44063 137.77562Q66.675 138.26 67.08125 138.52562Q67.50313 138.79124 67.97188 138.79124Q68.62813 138.79124 69.1125 138.26Q69.59688 137.71312 69.59688 136.79124Q69.59688 135.90062 69.1125 135.385Q68.64375 134.86937 67.925 134.86937Q67.20625 134.86937 66.70625 135.385Q66.22188 135.90062 66.22188 136.72874Z" fill-rule="nonzero"/><path fill="#000000" d="M66.675 79.87375Q66.01875 79.62375 65.69063 79.18625Q65.37813 78.73312 65.37813 78.12375Q65.37813 77.18625 66.05 76.54562Q66.7375 75.905 67.84688 75.905Q68.97188 75.905 69.65938 76.56125Q70.34688 77.2175 70.34688 78.155Q70.34688 78.74875 70.03438 79.18625Q69.72188 79.62375 69.08125 79.87375Q69.87813 80.12375 70.28438 80.70187Q70.69063 81.28 70.69063 82.07687Q70.69063 83.17062 69.90938 83.92062Q69.14375 84.67062 67.8625 84.67062Q66.59688 84.67062 65.81563 83.92062Q65.03438 83.17062 65.03438 82.04562Q65.03438 81.20187 65.45625 80.63937Q65.89375 80.07687 66.675 79.87375ZM66.45625 78.07687Q66.45625 78.68625 66.84688 79.07687Q67.25313 79.4675 67.87813 79.4675Q68.4875 79.4675 68.87813 79.0925Q69.26875 78.70187 69.26875 78.13937Q69.26875 77.56125 68.8625 77.17062Q68.45625 76.76437 67.8625 76.76437Q67.25313 76.76437 66.84688 77.155Q66.45625 77.54562 66.45625 78.07687ZM66.12813 82.04562Q66.12813 82.49875 66.33125 82.92062Q66.55 83.3425 66.97188 83.57687Q67.39375 83.81125 67.87813 83.81125Q68.62813 83.81125 69.1125 83.32687Q69.6125 82.8425 69.6125 82.0925Q69.6125 81.32687 69.1125 80.82687Q68.6125 80.32687 67.84688 80.32687Q67.09688 80.32687 66.6125 80.82687Q66.12813 81.31125 66.12813 82.04562Z" fill-rule="nonzero"/><path fill="#000000" d="M62.01875 29.55L60.971874 29.55L60.971874 22.83125Q60.58125 23.190624 59.95625 23.565624Q59.346874 23.925 58.8625 24.096874L58.8625 23.08125Q59.7375 22.659374 60.39375 22.08125Q61.065624 21.4875 61.346874 20.925L62.01875 20.925L62.01875 29.55ZM65.05 25.315624Q65.05 23.784374 65.3625 22.8625Q65.675 21.925 66.28438 21.425Q66.90938 20.925 67.84688 20.925Q68.53438 20.925 69.05 21.20625Q69.58125 21.4875 69.925 22.01875Q70.26875 22.534374 70.45625 23.284374Q70.64375 24.034374 70.64375 25.315624Q70.64375 26.83125 70.33125 27.753124Q70.03438 28.675 69.40938 29.190624Q68.8 29.690624 67.84688 29.690624Q66.6125 29.690624 65.89375 28.8Q65.05 27.7375 65.05 25.315624ZM66.12813 25.315624Q66.12813 27.425 66.62813 28.128124Q67.12813 28.83125 67.84688 28.83125Q68.58125 28.83125 69.06563 28.128124Q69.56563 27.425 69.56563 25.315624Q69.56563 23.190624 69.06563 22.503124Q68.58125 21.8 67.83125 21.8Q67.1125 21.8 66.675 22.409374Q66.12813 23.190624 66.12813 25.315624Z" fill-rule="nonzero"/><path fill="#000000" d="M66.05 313.21564Q66.05 311.6844 66.3625 310.7625Q66.675 309.825 67.28438 309.325Q67.90938 308.825 68.84688 308.825Q69.53438 308.825 70.05 309.10626Q70.58125 309.3875 70.925 309.91876Q71.26875 310.4344 71.45625 311.1844Q71.64375 311.9344 71.64375 313.21564Q71.64375 314.73126 71.33125 315.65314Q71.03438 316.575 70.40938 317.09064Q69.8 317.59064 68.84688 317.59064Q67.6125 317.59064 66.89375 316.7Q66.05 315.6375 66.05 313.21564ZM67.12813 313.21564Q67.12813 315.325 67.62813 316.02814Q68.12813 316.73126 68.84688 316.73126Q69.58125 316.73126 70.06563 316.02814Q70.56563 315.325 70.56563 313.21564Q70.56563 311.09064 70.06563 310.40314Q69.58125 309.7 68.83125 309.7Q68.1125 309.7 67.675 310.3094Q67.12813 311.09064 67.12813 313.21564ZM73.64375 317.45L73.64375 316.2469L74.84688 316.2469L74.84688 317.45L73.64375 317.45ZM76.05 313.21564Q76.05 311.6844 76.3625 310.7625Q76.675 309.825 77.28438 309.325Q77.90938 308.825 78.84688 308.825Q79.53438 308.825 80.05 309.10626Q80.58125 309.3875 80.925 309.91876Q81.26875 310.4344 81.45625 311.1844Q81.64375 311.9344 81.64375 313.21564Q81.64375 314.73126 81.33125 315.65314Q81.03438 316.575 80.40938 317.09064Q79.8 317.59064 78.84688 317.59064Q77.6125 317.59064 76.89375 316.7Q76.05 315.6375 76.05 313.21564ZM77.12813 313.21564Q77.12813 315.325 77.62813 316.02814Q78.12813 316.73126 78.84688 316.73126Q79.58125 316.73126 80.06563 316.02814Q80.56563 315.325 80.56563 313.21564Q80.56563 311.09064 80.06563 310.40314Q79.58125 309.7 78.83125 309.7Q78.1125 309.7 77.675 310.3094Q77.12813 311.09064 77.12813 313.21564ZM83.05 313.21564Q83.05 311.6844 83.3625 310.7625Q83.675 309.825 84.28438 309.325Q84.90938 308.825 85.84688 308.825Q86.53438 308.825 87.05 309.10626Q87.58125 309.3875 87.925 309.91876Q88.26875 310.4344 88.45625 311.1844Q88.64375 311.9344 88.64375 313.21564Q88.64375 314.73126 88.33125 315.65314Q88.03438 316.575 87.40938 317.09064Q86.8 317.59064 85.84688 317.59064Q84.6125 317.59064 83.89375 316.7Q83.05 315.6375 83.05 313.21564ZM84.12813 313.21564Q84.12813 315.325 84.62813 316.02814Q85.12813 316.73126 85.84688 316.73126Q86.58125 316.73126 87.06563 316.02814Q87.56563 315.325 87.56563 313.21564Q87.56563 311.09064 87.06563 310.40314Q86.58125 309.7 85.83125 309.7Q85.1125 309.7 84.675 310.3094Q84.12813 311.09064 84.12813 313.21564Z" fill-rule="nonzero"/><path fill="#000000" d="M150.03334 313.21564Q150.03334 311.6844 150.34584 310.7625Q150.65834 309.825 151.26772 309.325Q151.89272 308.825 152.83022 308.825Q153.51772 308.825 154.03334 309.10626Q154.56459 309.3875 154.90834 309.91876Q155.25209 310.4344 155.43959 311.1844Q155.62709 311.9344 155.62709 313.21564Q155.62709 314.73126 155.31459 315.65314Q155.01772 316.575 154.39272 317.09064Q153.78334 317.59064 152.83022 317.59064Q151.59584 317.59064 150.87709 316.7Q150.03334 315.6375 150.03334 313.21564ZM151.11147 313.21564Q151.11147 315.325 151.61147 316.02814Q152.11147 316.73126 152.83022 316.73126Q153.56459 316.73126 154.04897 316.02814Q154.54897 315.325 154.54897 313.21564Q154.54897 311.09064 154.04897 310.40314Q153.56459 309.7 152.81459 309.7Q152.09584 309.7 151.65834 310.3094Q151.11147 311.09064 151.11147 313.21564ZM157.62709 317.45L157.62709 316.2469L158.83022 316.2469L158.83022 317.45L157.62709 317.45ZM160.03334 313.21564Q160.03334 311.6844 160.34584 310.7625Q160.65834 309.825 161.26772 309.325Q161.89272 308.825 162.83022 308.825Q163.51772 308.825 164.03334 309.10626Q164.56459 309.3875 164.90834 309.91876Q165.25209 310.4344 165.43959 311.1844Q165.62709 311.9344 165.62709 313.21564Q165.62709 314.73126 165.31459 315.65314Q165.01772 316.575 164.39272 317.09064Q163.78334 317.59064 162.83022 317.59064Q161.59584 317.59064 160.87709 316.7Q160.03334 315.6375 160.03334 313.21564ZM161.11147 313.21564Q161.11147 315.325 161.61147 316.02814Q162.11147 316.73126 162.83022 316.73126Q163.56459 316.73126 164.04897 316.02814Q164.54897 315.325 164.54897 313.21564Q164.54897 311.09064 164.04897 310.40314Q163.56459 309.7 162.81459 309.7Q162.09584 309.7 161.65834 310.3094Q161.11147 311.09064 161.11147 313.21564ZM171.00209 317.45L169.95522 317.45L169.95522 310.73126Q169.56459 311.09064 168.93959 311.46564Q168.33022 311.825 167.84584 311.9969L167.84584 310.98126Q168.72084 310.5594 169.37709 309.98126Q170.04897 309.3875 170.33022 308.825L171.00209 308.825L171.00209 317.45Z" fill-rule="nonzero"/><path fill="#000000" d="M234.01666 313.21564Q234.01666 311.6844 234.32916 310.7625Q234.64166 309.825 235.25104 309.325Q235.87604 308.825 236.81354 308.825Q237.50104 308.825 238.01666 309.10626Q238.54791 309.3875 238.89166 309.91876Q239.23541 310.4344 239.42291 311.1844Q239.61041 311.9344 239.61041 313.21564Q239.61041 314.73126 239.29791 315.65314Q239.00104 316.575 238.37604 317.09064Q237.76666 317.59064 236.81354 317.59064Q235.57916 317.59064 234.86041 316.7Q234.01666 315.6375 234.01666 313.21564ZM235.09479 313.21564Q235.09479 315.325 235.59479 316.02814Q236.09479 316.73126 236.81354 316.73126Q237.54791 316.73126 238.03229 316.02814Q238.53229 315.325 238.53229 313.21564Q238.53229 311.09064 238.03229 310.40314Q237.54791 309.7 236.79791 309.7Q236.07916 309.7 235.64166 310.3094Q235.09479 311.09064 235.09479 313.21564ZM241.61041 317.45L241.61041 316.2469L242.81354 316.2469L242.81354 317.45L241.61041 317.45ZM244.01666 313.21564Q244.01666 311.6844 244.32916 310.7625Q244.64166 309.825 245.25104 309.325Q245.87604 308.825 246.81354 308.825Q247.50104 308.825 248.01666 309.10626Q248.54791 309.3875 248.89166 309.91876Q249.23541 310.4344 249.42291 311.1844Q249.61041 311.9344 249.61041 313.21564Q249.61041 314.73126 249.29791 315.65314Q249.00104 316.575 248.37604 317.09064Q247.76666 317.59064 246.81354 317.59064Q245.57916 317.59064 244.86041 316.7Q244.01666 315.6375 244.01666 313.21564ZM245.09479 313.21564Q245.09479 315.325 245.59479 316.02814Q246.09479 316.73126 246.81354 316.73126Q247.54791 316.73126 248.03229 316.02814Q248.53229 315.325 248.53229 313.21564Q248.53229 311.09064 248.03229 310.40314Q247.54791 309.7 246.79791 309.7Q246.07916 309.7 245.64166 310.3094Q245.09479 311.09064 245.09479 313.21564ZM256.56354 316.4344L256.56354 317.45L250.87604 317.45Q250.87604 317.075 251.00104 316.71564Q251.21979 316.1375 251.68854 315.575Q252.17291 315.0125 253.07916 314.27814Q254.48541 313.1219 254.96979 312.45Q255.46979 311.77814 255.46979 311.1844Q255.46979 310.5594 255.01666 310.1375Q254.56354 309.7 253.84479 309.7Q253.07916 309.7 252.62604 310.15314Q252.17291 310.60626 252.15729 311.41876L251.07916 311.3094Q251.18854 310.09064 251.90729 309.46564Q252.64166 308.825 253.87604 308.825Q255.11041 308.825 255.82916 309.5125Q256.5479 310.2 256.5479 311.21564Q256.5479 311.73126 256.32916 312.23126Q256.12604 312.71564 255.62604 313.27814Q255.14166 313.825 254.01666 314.77814Q253.06354 315.575 252.78229 315.8719Q252.51666 316.15314 252.34479 316.4344L256.56354 316.4344Z" fill-rule="nonzero"/><path fill="#000000" d="M318.0 313.21564Q318.0 311.6844 318.3125 310.7625Q318.625 309.825 319.23438 309.325Q319.85938 308.825 320.79688 308.825Q321.48438 308.825 322.0 309.10626Q322.53125 309.3875 322.875 309.91876Q323.21875 310.4344 323.40625 311.1844Q323.59375 311.9344 323.59375 313.21564Q323.59375 314.73126 323.28125 315.65314Q322.98438 316.575 322.35938 317.09064Q321.75 317.59064 320.79688 317.59064Q319.5625 317.59064 318.84375 316.7Q318.0 315.6375 318.0 313.21564ZM319.07812 313.21564Q319.07812 315.325 319.57812 316.02814Q320.07812 316.73126 320.79688 316.73126Q321.53125 316.73126 322.01562 316.02814Q322.51562 315.325 322.51562 313.21564Q322.51562 311.09064 322.01562 310.40314Q321.53125 309.7 320.78125 309.7Q320.0625 309.7 319.625 310.3094Q319.07812 311.09064 319.07812 313.21564ZM325.59375 317.45L325.59375 316.2469L326.79688 316.2469L326.79688 317.45L325.59375 317.45ZM328.0 313.21564Q328.0 311.6844 328.3125 310.7625Q328.625 309.825 329.23438 309.325Q329.85938 308.825 330.79688 308.825Q331.48438 308.825 332.0 309.10626Q332.53125 309.3875 332.875 309.91876Q333.21875 310.4344 333.40625 311.1844Q333.59375 311.9344 333.59375 313.21564Q333.59375 314.73126 333.28125 315.65314Q332.98438 316.575 332.35938 317.09064Q331.75 317.59064 330.79688 317.59064Q329.5625 317.59064 328.84375 316.7Q328.0 315.6375 328.0 313.21564ZM329.07812 313.21564Q329.07812 315.325 329.57812 316.02814Q330.07812 316.73126 330.79688 316.73126Q331.53125 316.73126 332.01562 316.02814Q332.51562 315.325 332.51562 313.21564Q332.51562 311.09064 332.01562 310.40314Q331.53125 309.7 330.78125 309.7Q330.0625 309.7 329.625 310.3094Q329.07812 311.09064 329.07812 313.21564ZM335.0 315.1844L336.0625 315.04376Q336.23438 315.9344 336.67188 316.34064Q337.10938 316.73126 337.73438 316.73126Q338.48438 316.73126 339.0 316.21564Q339.51562 315.7 339.51562 314.9344Q339.51562 314.21564 339.03125 313.7469Q338.5625 313.2625 337.82812 313.2625Q337.53125 313.2625 337.07812 313.3875L337.20312 312.45Q337.3125 312.46564 337.375 312.46564Q338.04688 312.46564 338.57812 312.1219Q339.125 311.7625 339.125 311.02814Q339.125 310.45 338.73438 310.075Q338.34375 309.6844 337.71875 309.6844Q337.10938 309.6844 336.6875 310.075Q336.28125 310.46564 336.17188 311.23126L335.10938 311.04376Q335.29688 309.9969 335.98438 309.41876Q336.67188 308.825 337.6875 308.825Q338.39062 308.825 338.98438 309.1375Q339.57812 309.4344 339.89062 309.95Q340.20312 310.46564 340.20312 311.0594Q340.20312 311.60626 339.90625 312.075Q339.60938 312.52814 339.03125 312.79376Q339.78125 312.96564 340.20312 313.52814Q340.625 314.075 340.625 314.91876Q340.625 316.04376 339.79688 316.825Q338.98438 317.60626 337.73438 317.60626Q336.60938 317.60626 335.85938 316.9344Q335.10938 316.2469 335.0 315.1844Z" fill-rule="nonzero"/><path fill="#000000" d="M401.98334 313.21564Q401.98334 311.6844 402.29584 310.7625Q402.60834 309.825 403.2177 309.325Q403.8427 308.825 404.7802 308.825Q405.4677 308.825 405.98334 309.10626Q406.5146 309.3875 406.85834 309.91876Q407.2021 310.4344 407.3896 311.1844Q407.5771 311.9344 407.5771 313.21564Q407.5771 314.73126 407.2646 315.65314Q406.9677 316.575 406.3427 317.09064Q405.73334 317.59064 404.7802 317.59064Q403.54584 317.59064 402.8271 316.7Q401.98334 315.6375 401.98334 313.21564ZM403.06146 313.21564Q403.06146 315.325 403.56146 316.02814Q404.06146 316.73126 404.7802 316.73126Q405.5146 316.73126 405.99896 316.02814Q406.49896 315.325 406.49896 313.21564Q406.49896 311.09064 405.99896 310.40314Q405.5146 309.7 404.7646 309.7Q404.04584 309.7 403.60834 310.3094Q403.06146 311.09064 403.06146 313.21564ZM409.5771 317.45L409.5771 316.2469L410.7802 316.2469L410.7802 317.45L409.5771 317.45ZM411.98334 313.21564Q411.98334 311.6844 412.29584 310.7625Q412.60834 309.825 413.2177 309.325Q413.8427 308.825 414.7802 308.825Q415.4677 308.825 415.98334 309.10626Q416.5146 309.3875 416.85834 309.91876Q417.2021 310.4344 417.3896 311.1844Q417.5771 311.9344 417.5771 313.21564Q417.5771 314.73126 417.2646 315.65314Q416.9677 316.575 416.3427 317.09064Q415.73334 317.59064 414.7802 317.59064Q413.54584 317.59064 412.8271 316.7Q411.98334 315.6375 411.98334 313.21564ZM413.06146 313.21564Q413.06146 315.325 413.56146 316.02814Q414.06146 316.73126 414.7802 316.73126Q415.5146 316.73126 415.99896 316.02814Q416.49896 315.325 416.49896 313.21564Q416.49896 311.09064 415.99896 310.40314Q415.5146 309.7 414.7646 309.7Q414.04584 309.7 413.60834 310.3094Q413.06146 311.09064 413.06146 313.21564ZM422.35834 317.45L422.35834 315.3875L418.6396 315.3875L418.6396 314.41876L422.56146 308.85626L423.42084 308.85626L423.42084 314.41876L424.5771 314.41876L424.5771 315.3875L423.42084 315.3875L423.42084 317.45L422.35834 317.45ZM422.35834 314.41876L422.35834 310.5594L419.67084 314.41876L422.35834 314.41876Z" fill-rule="nonzero"/><path fill="#000000" d="M485.96667 313.21564Q485.96667 311.6844 486.27917 310.7625Q486.59167 309.825 487.20105 309.325Q487.82605 308.825 488.76355 308.825Q489.45105 308.825 489.96667 309.10626Q490.49792 309.3875 490.84167 309.91876Q491.18542 310.4344 491.37292 311.1844Q491.56042 311.9344 491.56042 313.21564Q491.56042 314.73126 491.24792 315.65314Q490.95105 316.575 490.32605 317.09064Q489.71667 317.59064 488.76355 317.59064Q487.52917 317.59064 486.81042 316.7Q485.96667 315.6375 485.96667 313.21564ZM487.0448 313.21564Q487.0448 315.325 487.5448 316.02814Q488.0448 316.73126 488.76355 316.73126Q489.49792 316.73126 489.9823 316.02814Q490.4823 315.325 490.4823 313.21564Q490.4823 311.09064 489.9823 310.40314Q489.49792 309.7 488.74792 309.7Q488.02917 309.7 487.59167 310.3094Q487.0448 311.09064 487.0448 313.21564ZM493.56042 317.45L493.56042 316.2469L494.76355 316.2469L494.76355 317.45L493.56042 317.45ZM495.96667 313.21564Q495.96667 311.6844 496.27917 310.7625Q496.59167 309.825 497.20105 309.325Q497.82605 308.825 498.76355 308.825Q499.45105 308.825 499.96667 309.10626Q500.49792 309.3875 500.84167 309.91876Q501.18542 310.4344 501.37292 311.1844Q501.56042 311.9344 501.56042 313.21564Q501.56042 314.73126 501.24792 315.65314Q500.95105 316.575 500.32605 317.09064Q499.71667 317.59064 498.76355 317.59064Q497.52917 317.59064 496.81042 316.7Q495.96667 315.6375 495.96667 313.21564ZM497.0448 313.21564Q497.0448 315.325 497.5448 316.02814Q498.0448 316.73126 498.76355 316.73126Q499.49792 316.73126 499.9823 316.02814Q500.4823 315.325 500.4823 313.21564Q500.4823 311.09064 499.9823 310.40314Q499.49792 309.7 498.74792 309.7Q498.02917 309.7 497.59167 310.3094Q497.0448 311.09064 497.0448 313.21564ZM502.96667 315.2L504.07605 315.10626Q504.20105 315.91876 504.63855 316.325Q505.09167 316.73126 505.7323 316.73126Q506.4823 316.73126 507.01355 316.15314Q507.5448 315.575 507.5448 314.6375Q507.5448 313.73126 507.02917 313.21564Q506.52917 312.6844 505.70105 312.6844Q505.20105 312.6844 504.77917 312.91876Q504.37292 313.15314 504.13855 313.5125L503.15417 313.3875L503.9823 308.98126L508.26355 308.98126L508.26355 309.98126L504.82605 309.98126L504.37292 312.29376Q505.13855 311.7469 505.9823 311.7469Q507.1073 311.7469 507.87292 312.52814Q508.65417 313.3094 508.65417 314.54376Q508.65417 315.7 507.9823 316.5594Q507.15417 317.59064 505.7323 317.59064Q504.56042 317.59064 503.81042 316.9344Q503.07605 316.27814 502.96667 315.2Z" fill-rule="nonzero"/><path fill="#000000" d="M569.95 313.21564Q569.95 311.6844 570.2625 310.7625Q570.575 309.825 571.1844 309.325Q571.8094 308.825 572.7469 308.825Q573.4344 308.825 573.95 309.10626Q574.48126 309.3875 574.825 309.91876Q575.16876 310.4344 575.35626 311.1844Q575.54376 311.9344 575.54376 313.21564Q575.54376 314.73126 575.23126 315.65314Q574.9344 316.575 574.3094 317.09064Q573.7 317.59064 572.7469 317.59064Q571.5125 317.59064 570.79376 316.7Q569.95 315.6375 569.95 313.21564ZM571.02814 313.21564Q571.02814 315.325 571.52814 316.02814Q572.02814 316.73126 572.7469 316.73126Q573.48126 316.73126 573.96564 316.02814Q574.46564 315.325 574.46564 313.21564Q574.46564 311.09064 573.96564 310.40314Q573.48126 309.7 572.73126 309.7Q572.0125 309.7 571.575 310.3094Q571.02814 311.09064 571.02814 313.21564ZM577.54376 317.45L577.54376 316.2469L578.7469 316.2469L578.7469 317.45L577.54376 317.45ZM579.95 313.21564Q579.95 311.6844 580.2625 310.7625Q580.575 309.825 581.1844 309.325Q581.8094 308.825 582.7469 308.825Q583.4344 308.825 583.95 309.10626Q584.48126 309.3875 584.825 309.91876Q585.16876 310.4344 585.35626 311.1844Q585.54376 311.9344 585.54376 313.21564Q585.54376 314.73126 585.23126 315.65314Q584.9344 316.575 584.3094 317.09064Q583.7 317.59064 582.7469 317.59064Q581.5125 317.59064 580.79376 316.7Q579.95 315.6375 579.95 313.21564ZM581.02814 313.21564Q581.02814 315.325 581.52814 316.02814Q582.02814 316.73126 582.7469 316.73126Q583.48126 316.73126 583.96564 316.02814Q584.46564 315.325 584.46564 313.21564Q584.46564 311.09064 583.96564 310.40314Q583.48126 309.7 582.73126 309.7Q582.0125 309.7 581.575 310.3094Q581.02814 311.09064 581.02814 313.21564ZM592.41876 310.96564L591.3719 311.04376Q591.23126 310.41876 590.98126 310.1375Q590.54376 309.6844 589.91876 309.6844Q589.41876 309.6844 589.02814 309.96564Q588.54376 310.34064 588.2469 311.04376Q587.96564 311.73126 587.95 313.0125Q588.325 312.4344 588.8719 312.15314Q589.4344 311.8719 590.04376 311.8719Q591.09064 311.8719 591.825 312.65314Q592.575 313.4344 592.575 314.65314Q592.575 315.46564 592.21564 316.16876Q591.8719 316.85626 591.2625 317.23126Q590.65314 317.59064 589.8875 317.59064Q588.5594 317.59064 587.73126 316.6219Q586.90314 315.65314 586.90314 313.4344Q586.90314 310.9344 587.825 309.8094Q588.6219 308.825 589.98126 308.825Q590.9969 308.825 591.6375 309.40314Q592.29376 309.96564 592.41876 310.96564ZM588.1219 314.66876Q588.1219 315.21564 588.34064 315.71564Q588.575 316.2 588.98126 316.46564Q589.40314 316.73126 589.8719 316.73126Q590.52814 316.73126 591.0125 316.2Q591.4969 315.65314 591.4969 314.73126Q591.4969 313.84064 591.0125 313.325Q590.54376 312.8094 589.825 312.8094Q589.10626 312.8094 588.60626 313.325Q588.1219 313.84064 588.1219 314.66876Z" fill-rule="nonzero"/></svg>